<svg id="Layer_1" data-name="Layer 1" xmlns="http://www.w3.org/2000/svg" viewBox="0 0 2022.79 2191.71"><defs><style>.cls-1{fill:#fff;}</style></defs><g id="Capa_1" data-name="Capa 1"><path class="cls-1" d="M836.37,339.39c-22.3,7.53-38.33,20.58-46.25,44.3-5.43-7.87-10.17-14-14.1-20.65-3-5.15-6.4-5.57-11.51-3.39-12.74,5.44-17.27,15-14.35,33.1l19-13.09,1.06,1-7.34,13.66c11.87,5.44,18-3.05,25.86-9.92l-.23,12.76,13.32,1.06,2,2.46c-2.61,1.73-5.38,3.26-7.8,5.23-4.87,4-9.65,8.06-14.28,12.31-10.21,9.35-9.88,13.62,1.43,21.6C806.1,456,807.67,456.23,828,437.31c11.17-10.39,21.23-22,31.78-33.05,1.46-1.52,2.88-3.07,4.44-4.74,5.65,7,6.62,12.43,1.87,21.22C858.41,435,854.1,451,847.76,468c7-.22,12.3-.42,17.59-.54,18.39-.43,26.4,7.62,23.19,25.7-4.29,24.19-10.55,48-14.92,72.23-1.65,9.16-.11,18.87-.53,28.31a38,38,0,0,1-2.62,13.19c-1.7,3.9-4.75,7.38-7.74,10.53-15.34,16.17-20.86,35.45-18.77,57.29,1.38,14.42,2.35,28.89,4.21,43.25,1.89,14.6,10.5,24,25.16,29.39,9.73-14.67,20.29-28.4,28.46-43.43,12.26-22.56,30.4-37.59,53.53-47.35,19.63-8.3,40-15.18,58.83-24.92,12.86-6.64,24.43-16.35,35.31-26.1,9.65-8.66,11-20.31,5.54-32.4a61.91,61.91,0,0,1-3.69-9.1c-2.3-8.41-.14-15,7.65-18.67,12.45-5.83,17.76-16.1,21.06-28.53,7.41-28,14.81-56,23-83.75,4.59-15.56,14.1-28,27.21-38.06,4.78-3.65,7.4-10.13,11.35-15.81l-8.6-4.71c.94-2.12,1.78-4.33,2.86-6.41,8.94-17.24,18.11-34.35,26.78-51.72,2.62-5.24,5.23-6.84,11.34-5.58,74.29,15.27,145.67,38.93,213.53,73,103.37,51.92,191.14,123.45,266.14,211.11a798.89,798.89,0,0,1,130.92,212.91,876.21,876.21,0,0,1,63,243.72c1.66,15.16,2.24,30.49,2.39,45.75.19,19.41-1.28,38.85-.79,58.24,1.81,71.1-14.16,139.7-31.87,207.48-27,103.5-74.67,197.68-140,282.56-47.15,61.28-102.67,114.08-164.78,160.06-78.26,58-163.23,102.79-256.59,131-89.6,27-181.38,37.66-274.75,32.68-40.34-2.15-81.12-3.84-120.7-11.18-111.38-20.66-215.18-61.72-310-124.37C440.2,1760.81,353,1665.91,286,1552.39c-62-105.08-97.43-218.9-106.89-340.55-4.67-60-6.35-120.15,1.34-180.13a860.42,860.42,0,0,1,57.29-218.3C273,727.34,322,649.81,384,580.48,481,471.94,597,391.33,734.8,343.36c27.06-9.41,55-16.2,82.44-24.63,6.84-2.1,10.08-.25,12.29,6.15C831.07,329.48,833.64,333.75,836.37,339.39Zm728.27,238.06c-20.76-3.59-39.77-6.58-57.42-15.19-15.36-7.49-23-20.07-25.84-36.55-2-11.21-.28-21.75,3.22-32.24,2.82-8.45,1.37-16.07-3.94-23-13.31,3.21-18.25,9.4-18.49,25.87-.28,18.85.16,37.73.88,56.58.48,12.52,6,18.1,18.32,20.44,10.47,2,21.15,3.16,31.39,6,5.85,1.6,11,5.69,16.47,8.66v4c-5.32,2.6-10.4,6.24-16,7.6-14.14,3.43-28.52,5.94-39.47,16.66-8.7,8.52-8.91,8.49-16.87-.83-2.5-2.93-5.76-5.2-8.67-7.77-.8,3.79-2.1,7.55-2.3,11.36-.48,9.32-.44,18.65-.61,28L1442,648.2c-4.5-5.89-9.77-11.36-13.36-17.78-8.68-15.56-21.56-24.23-39.07-26.52-4.33-.56-9.1-.54-12.81-2.44-5.87-3-13.14-6.28-16-11.52-5.46-10-13.32-11.37-22.63-10.45a86.94,86.94,0,0,0-56.71,28.29c-6.18,6.7-10,15.91-13.58,24.54-3.18,7.77-4.25,16.39-6.66,24.51-8,27-21.41,50.21-46.65,65a15,15,0,0,0-5.16,6.12c-6.26,12.41-1.89,36.44,8.15,46.12,5.69,5.47,11.1,5.82,17.59,1,2.84-2.13,5.42-4.62,8.29-6.7,4.68-3.37,8.15-3.5,10.25,3.18,3,9.64,6.73,19.07,10.25,28.55,2.52,6.77,7.08,9.07,13.08,5.16,4-2.63,7.21-7.21,9.67-11.55,3.22-5.66,4.26-12.83,8.2-17.77,8.63-10.8,8.12-21.29,3.88-33.69-8.38-24.58,6.14-62.22,27.5-74.1,6.36,4,6.23,9.51,3.52,15.67-2.42,5.48-5.3,10.86-6.92,16.58-7.44,26.27-.86,36.12,26.33,40.63,8.35,1.39,16.67,3.06,24.89,5.07,1.84.45,3.19,2.86,4.77,4.37-1.73,1.37-3.28,3.48-5.23,4-7.41,1.89-14.91,3.5-22.46,4.75-5,.83-7.38,2.84-8.26,8.21-.71,4.32-2.84,9.21-5.94,12.17-7.13,6.8-10.45,15-12.68,24.23-.74,3-3,7.2-5.55,8.06-16.53,5.6-33.11,11.32-50.08,15.27-15.19,3.54-20.32-.84-23.46-16.07l-3-14.4c-2.94,6.51-3.37,13-5.15,19-4.74,16.06-16.63,26.83-29.37,36.4-9.1,6.84-15,15.45-19.93,25.47a33.43,33.43,0,0,1-10.34,12c-11.48,8.16-23.52,15.53-36.5,24,5,4,8.86,7.28,13,10.33,6.7,5,10.66,11.06,8.13,19.71s-8.87,12.8-17.51,13.8c-7.87.92-15.77,1.62-23.64,2.6-10.44,1.3-17.66,6.94-21.41,16.77-7.34,19.26-4.71,37.12,8.39,53,10.36,12.6,11.92,17.84,3.06,31.14-17,25.44-33.88,51-52.84,75-19.68,24.84-31.46,50.82-25.58,83.17,1.44,7.93.59,16.34.27,24.5-.62,15.94.3,31.55,12.11,43.75,17.46,18,35.36,35.62,53.21,53.26,1.82,1.8,4.57,3.81,6.88,3.8,21.24-.1,42.61,3.12,63.64-2.9,24.44-7,48-5,70.76,7,16.62,8.77,18.52,12,12.73,30.43-4.4,14-2.63,27,5,39.31a141.57,141.57,0,0,0,10.48,14.67c19.59,24,24.64,49.76,11.67,78.71-8.37,18.66-8.76,38.07-2.77,57.71,8.29,27.2,16.28,54.48,24.31,81.75,3.77,12.85,7.19,25.8,11,38.63,2,6.7,6,12.53,13.5,12.49,28.89-.17,55.59-6.07,73.75-31.51,14.93-20.9,29.73-41.91,44.64-62.84,5.59-7.86,8.66-16.37,7.36-26.16-1.36-10.21,2.11-19,8.85-26.33,5-5.37,10.78-10,16.52-14.64,21.66-17.37,29.37-39,22-66.24-6.77-24.88-2.25-47.87,14.74-67.61,7.46-8.67,16.91-15.71,23.87-24.71,19.88-25.74,39.48-51.75,58-78.47,5.22-7.54,6.36-17.91,9.92-28.62-19.5,4.11-36,7.71-52.6,11-5.61,1.12-11.13.9-13.68-5.73s2.93-9,7-11c13.27-6.41,26.84-12.21,40.3-18.24,29.73-13.3,57.14-29.9,78.56-55.07,9.9-11.64,10-21.33.37-33-3.82-4.63-8-9-11.37-14-6.1-9-11.07-11.16-21.43-8.14-3.15.92-6.2,2.19-9.36,3-10.18,2.71-15.85.25-21.58-8.49-2-3.11-5.06-5.57-7.49-8.45-6.27-7.43-12.46-14.93-18.68-22.4l2.21-2.18c5.1,2.47,10.07,5.25,15.32,7.35,10.09,4,20.06,9.19,30.59,11.22,22.51,4.35,45.28,7.78,68.09,10.15,27.32,2.85,49.94,12.9,66,36.09,4,5.76,8.59,12.51,14.54,15.21,13.19,6,17.23,17.21,21.14,29.19q2.79,8.58,5.83,17.08c3.69,10.37,7.46,20.72,11.2,31.08l3.08-.14c2.62-16.1,6-32.11,7.72-48.3,5.27-50.49,3.28-101-.5-151.52-7.27-97.19-32.52-189.39-75.1-276.93-32.23-66.27-72.25-127.49-121.34-182.46-21.64-24.23-45.15-46.8-68-69.9-1.79-1.81-5.39-1.84-8.15-2.69.14,2.45-.32,5.12.51,7.31C1553.13,548.67,1558.62,562.25,1564.64,577.45ZM491.32,511.91c-6.57,5-12.79,9-18.19,14-84.34,76.7-152.63,165.3-199.63,269.67C246.09,856.45,227.8,920.24,212.74,985c-8.55,36.77-11.82,73.94-5,111.48,4.67,25.83,11.95,50.62,29.35,71.16,1.72,2,4.66,3,7,4.53-.05-2.7.57-5.62-.26-8-6.64-19.68-13.63-39.25-20.26-58.93-.62-1.84.47-4.26.77-6.4,1.79,1.07,4.34,1.71,5.24,3.29,18.1,31.49,38.56,61.73,51.13,96.18a58.63,58.63,0,0,0,5.83,10.8c11.85,18.92,30.88,27,50.93,33.48,19.52,6.29,39.11,12.34,58.54,18.9a129.07,129.07,0,0,1,45.5,26.91c14.17,12.73,29.49,24.29,45,35.34,7.43,5.28,16.64,5.64,25.36,1.37,20,15.71,23.7,32.45,12.15,54.7-1.51,2.91-3.87,5.53-4.73,8.6-2.47,8.78-6,17.7-6.11,26.62-.22,13.32,1.69,26.72,3.5,40,.59,4.3,3,8.8,5.77,12.26,8.85,11.12,18.3,21.76,27.46,32.63,16.43,19.53,33.2,38.87,56.48,50.48,19.86,9.9,32.64,25.34,39.39,46q18.47,56.52,36.31,113.23c8.34,26.54,12.29,54.4,25.14,79.59,9.81,19.22,17.37,39.7,28.34,58.19,11.24,19,24.8,36.69,38.5,54,9.39,11.89,23.46,15.45,41,16.94-10.33-25.26-19.51-48.52-29.37-71.48-4.74-11.05-7.86-21.74-5.32-34.07,3-14.81,1.09-17.67-11.84-25-.32-.19-.32-.93-.58-1.75,6.67-7,13.16-14.4,20.3-21.1,9.62-9,10.6-20,7.73-31.68-1.2-4.84-.14-7.7,3.29-10.65,11.38-9.81,16.71-22.45,18.25-37.28,1.63-15.73,4.21-31.35,6.36-47,2.36-17.15,10.4-26.33,26.58-30.32,15.32-3.78,20.54-9.28,22.6-25.1,1.7-13,2.15-26.2,4.3-39.13,3.75-22.57,7.24-45.3,13-67.39,4.35-16.61,3.59-21.9-10.62-31.5-25.92-17.51-54.73-28.6-84.13-38.14-17-5.53-29.9-14.45-38.06-30.94-6.94-14-17.61-25.6-33.34-29.79-28.4-7.56-51.94-20.48-61.39-50.81a35.4,35.4,0,0,0-4.64,1.17c-23.84,10.25-45.76,9.06-66.67-8.23-10.82-9-21.43-7.27-33,1.84a74.31,74.31,0,0,0-9.9,9.77c-7.61,8.75-17,12.39-28.51,11.13-8.43-.93-16.86-1.93-25.31-2.39-16.6-.91-23.08-6.81-24.52-23.35q-1.21-13.89-1.82-27.83c-.19-4.66-1.92-6.75-6.78-7.14-7.07-.55-14.11-1.74-21.12-2.91-15.87-2.62-17.78-6.73-11.78-21.63,4.22-10.49,7.39-21.39,11.13-32.38-18.74-2.71-24.55,0-32.38,14.66-4.5,8.42-10.21,14.8-20.59,15.22-21.08.85-40.53-16.59-39.06-37.49,1.37-19.52,5-39,8.77-58.22,2.19-11,10.22-18.29,21.6-19.77a118,118,0,0,1,24.43-.11c11.65.93,22.37-.29,31.31-8.69a16.46,16.46,0,0,1,22.12-.94c3.81,3.06,7.69,6.4,10.43,10.37,9.61,13.91,18.66,28.21,28.16,42.21,1.06,1.57,4.34,3.45,5.28,2.91,1.8-1,4-3.92,3.71-5.68-1.53-10-2.92-20.09-5.88-29.7-8-26.15-6.87-31,14.47-47.63a30,30,0,0,1,4.71-3.53c12.23-6.14,20.3-16.41,27.44-27.56,5.3-8.28,10.5-16.64,15.5-25.11,8.92-15.09,17.38-30.49,32.74-40.34,9.85-6.31,17.65-14.19,22.69-25.16,4.44-9.67,12.1-12,21.79-7.76,10,4.35,19.69,3.76,29.52.12,6.93-2.56,13.71-5.51,20.68-7.91,13.9-4.79,15.39-10.88,4.39-20.49-6.5-5.69-13.55-10.76-20.29-16.06,6.42-10.41,6.28-10.8-2.59-18.61-2.85-2.52-5.23-5.57-7.83-8.37l1-1.83c27.6,7.82,53.71,5,79-10.39,0,3.85-.65,7-2.36,9.3-7.84,10.63-16,21-23.43,30.77,9.4,5.86,17.71,11,26,16.19,7,4.42,12.67,3.68,18.15-2.53,7.19-8.17,6-19.5-2.19-29-3-3.48-6.23-8.45-6.1-12.63.89-28.74-8.53-55.47-14.57-82.91-3.14-14.25-3.53-29.12-5-43.73-.37-3.82.07-7.72.17-13.28-8.7,7.81-15.42,14.64-23,20.27a17.17,17.17,0,0,1-12.43,2.65c-1.7-.35-2.57-6.81-3-10.59-1.45-11.6-1.73-23.42-4-34.84-2-10-9.39-15.87-19.57-17.39-8.58-1.29-15,3-20.31,13.25-7.42,14.32-14.86,28.64-21.91,43.14a12.72,12.72,0,0,0-.72,9c5.08,13.63,4.2,14-5.36,25-14.28,16.45-27.22,34-40.81,51.09-2.52,3.15-5.46,6-8.2,8.94-1.38-4.77-2.84-9.52-4.06-14.33-.24-.93.35-2.13.7-3.16,6.33-18.57-.52-33-14-45.5-7-6.5-13.84-13.21-20.21-20.32-8.07-9-9.65-19.32-4.16-30.4,10-20.1,22.93-37.91,40.52-52,12.79-10.26,25.84-20.22,39-30,7-5.19,14.42-9.73,21.65-14.56-1.34,8.24-3.74,15.18-6.18,22.1-2.39,6.75-4.81,13.48-7.7,21.56,10.92-1.51,19.84-2.48,28.66-4,10.94-1.93,12.68-5.87,7.45-16-2.91-5.6-6.08-11.06-9.44-17.15,4.67.08,7.93,0,11.18.22,11.41.62,19.45-4.69,24.61-14.45,2.29-4.32,3.57-9.16,5.55-13.66,5.49-12.47,10.52-25.2,16.88-37.22,4.82-9.11,8.52-9.19,17.08-3,13.67,9.84,19,29.48,12.27,45.66s-19.43,25.16-35.58,30.32A46.68,46.68,0,0,0,684.19,650c-2.32,1.62-5.32,5.93-4.61,7.44a14.33,14.33,0,0,0,8,6.81c9.66,2.91,17.13,8.27,22.51,16.7,2.79,4.38,4.81,9.63,8.56,12.91s9.38,6.63,13.84,6.21c15.12-1.43,25-15.16,23.54-30.23-.56-5.68-.66-11.42-.65-17.13,0-1.36,1.26-3.85,2-3.85a6.88,6.88,0,0,1,4.77,2c3.2,3.62,6,7.6,8.85,11.32,20.8-10.42,27.09-28,15.9-46.31-6.26-10.26-6.89-18.75.63-28.43,5.59-7.18,7.28-16.3,1.35-23.71-11.09-13.86-14.5-30.35-15.58-46.77-1-15.18-7.78-22.33-21-27.69-12.35-5-23-4.8-34.2,2.1-17,10.45-28.56,25.14-35.82,43.51-5,12.78-5.08,12.74,5.44,20.83a57.12,57.12,0,0,1,4.23,4l-34.38,26.18c-5.88-18.39-7.45-34.72,4.45-50.33,5.39-7.09,8.51-15.88,13-23.69A47.58,47.58,0,0,1,701,490.47c6.26-2.27,11.63-7,17.4-10.63l-.72-2.77c-8.76-2.69-17.45-5.69-26.31-8s-15.82-.06-21.16,8.08C657.28,496.81,645,517,630.37,535.33c-11.5,14.35-25.65,26.77-39.66,38.82-8.71,7.49-19.11,6.51-26.18-.26-4.2-4-10.16-8.4-6.52-15.24,4-7.54,10.51-3.19,16-1.44,14.2,4.55,21.7-.15,26.67-14.29a275,275,0,0,1,17.24-38.71c6.44-12,14.73-23,21.83-34.66,1.91-3.14,2.43-7.12,3.59-10.71l-2.1-1.44c-2.38,1-4.81,2-7.14,3.17-10.26,5.16-20.43,10.5-30.77,15.48-2.44,1.17-5.44,1.16-8.18,1.7,0-2.84-.55-5.8.09-8.48,2.2-9.19,4.81-18.28,8-30.16-7.64,1.72-13.59,1.82-18.22,4.35a236.28,236.28,0,0,0-29.63,19,36.11,36.11,0,0,0-10.54,14c-8.22,18.78-15.83,37.83-23.32,56.91-2.34,6-6,7-10.79,4A32.72,32.72,0,0,1,502,529C498.33,524,495.34,518.43,491.32,511.91ZM1129.79,893.1c16.15-8.09,30.59-15.65,45.32-22.55,7-3.27,8.83-8.19,6.15-14.57-4.63-11-9.26-22.15-15.18-32.5-6.18-10.81-12.36-21-11-34.36.34-3.41-3-8.45-6.1-10.52-2-1.34-7.33.49-10.1,2.43-11.47,8-11.87,24.45-1.33,35.94,9.7,10.57,10.77,15.55,3.83,27.74-8.29,14.57-8.16,30.8-11.59,48.38ZM691.36,396.38c-22.55,1.68-42.23,8.35-59.06,21.92-2.94,2.37-5.25,8.3-4.39,11.73.67,2.7,6.72,5.89,10.27,5.76,20.25-.74,41.67,1.22,55.89-20l22,47.31c6.31-18.06,12-33.92,17.19-50,.55-1.74-2.08-6.35-3.69-6.59a85.85,85.85,0,0,0-20.75-1c-6.27.61-12.36,3.06-19.39,4.93C690.15,405.24,690.69,401.28,691.36,396.38ZM1573,1502.6c-12.39,13.1-25,26.42-37.58,39.78a26.7,26.7,0,0,0-4,5.16c-7.27,13.13-14.3,26.38-21.62,39.47-5.37,9.61-4,16,5,21.27,9.4,5.48,22,3.4,25.79-4.89,6.88-14.85,13.77-29.75,19.65-45C1567.27,1540,1571.79,1520.91,1573,1502.6ZM1293.75,467.25l1-3c-1.56-3.91-2.7-8-4.76-11.68-9.2-16.22-8.18-21,6.27-33.15,2.11-1.76,2.72-6,2.82-9.19.06-1.78-2-4.82-3.69-5.27-9.5-2.56-18.49-2.7-26.92,4.37-7.42,6.22-15.83,11.3-24.06,16.48-5,3.17-8.77,6.69-7.23,13.15,3.76,15.82,15.92,25.83,24.8,38.17,1.89-1.22,3-1.51,3.18-2.12C1270.58,460.6,1279.69,456.91,1293.75,467.25ZM1044,661c-17.22-1.09-23,6.29-17.62,22.87,5.31,16.4,19.63,24.72,37.25,21.66,14.59-2.54,23-14.46,23.08-32.08,0-4.8-1.5-6.83-6.26-7.41C1068.24,664.56,1056.11,662.71,1044,661ZM734.26,455.91c2.56,3.76,4.41,8.47,7.85,11,4.69,3.51,10.42,5.89,16,7.87,14.59,5.15,21.65,2.48,30.28-10.65,5.46-8.31,2.86-13.87-7.1-15.2-16.51-2.2-18.52-4.13-20.42-20.55-.52-4.47-2.49-6.54-6.25-3.56C744.92,432.58,735.5,440.7,734.26,455.91ZM545.9,1208.82l3.31-4c-2.06-.74-4.29-1.18-6.15-2.26-12.28-7.1-24.31-14.68-36.8-21.39a84.06,84.06,0,0,0-19.82-7.39c-7.33-1.77-14.42-.39-20.89,6.81C492.33,1192.11,514.21,1214.14,545.9,1208.82Zm583.42-387.66c-14.32-2.25-26.35,2.24-30.25,10.7-4.45,9.67-1,24.75,8.5,33.63,3.7-3,9.44-5.39,11-9.42C1123.1,844.84,1125.85,832.91,1129.32,821.16Zm-531.44,405.5c-7.87-10.24-17.09-15.84-29.1-14.94-10.45.78-17.92,6.59-23.34,17.14,16.14-.48,31.07-.91,46-1.4,1.81,0,3.61-.44,6.44-.8Z" transform="translate(0.01 0)"/><path class="cls-1" d="M1453.63,1020.11c7.6,14.94,5.27,27.85-6.36,37.78-16.52,14.1-35.46,18.78-56.64,14-14.12-3.22-28.15-6.87-42.31-9.88-6.27-1.34-12.78-1.59-20-2.42-.69,10.6-1.29,20-2,30.23-19-10.45-37.48-19.84-55-30.77-4.36-2.73-7.23-10.21-8-15.89-3.27-23.41-3.79-24.32-27.45-24.27-28.24.06-56.17,2.27-81.72,12.81,7.72-13.36,15.52-26.9,23.35-40.43,5.41-9.36,13-16.4,23.38-19.51,24.91-7.48,49.15-7,71.46,8.25,13.55,9.25,13.68,15,3.59,27.81-2.93,3.72-4.64,11.09-2.94,15.1,2,4.82,14.88,3.54,18.86-1.3,7.25-8.82,14-18,21.55-27.82,6.17,5.84,13.17,10.61,17.69,17.1,9.29,13.37,20.56,10.21,34.88,5.52l-17-29,7.65-6.26c4.78,5.67,9.15,11.12,13.79,16.32,6.91,7.74,13.79,15.52,21.08,22.9,10.44,10.55,23,13,37,8.46C1436.83,1026.06,1445,1023.1,1453.63,1020.11Zm-208.77-18.72c-.79-5.93-1.39-10.74-2.07-15.53s-1.48-9.86-2.31-15.33C1225.56,983.18,1226.93,993.47,1244.86,1001.39Z" transform="translate(0.01 0)"/><path class="cls-1" d="M1524.46,1241.62c-5.17-4.87-11.8-8.89-15.25-14.77-15.61-26.64-30.34-53.79-45.34-80.79-3-5.49-6.2-11-8.83-16.65-3.73-8.12-3.71-16.18,2.45-26.06,32.81,41.74,56.8,86,70.47,135.63Z" transform="translate(0.01 0)"/><path class="cls-1" d="M1392.38,959.51c2.27-7,3.65-12.89,6-18.3,3.71-8.47,8.28-9.18,17.23-6.76a55.68,55.68,0,0,0,22.17,1.64c9.16-1.37,11.31-7.86,7.61-16.53a46,46,0,0,1-3.4-11.65c-.26-1.91,1.51-4.09,2.78-7.18,5,8.6,8.1,16.53,13.49,22.28,6.79,7.24,15.13,13.23,23.49,18.7,5.21,3.4,8.94,7,7.12,13s-6.41,10.83-13.26,10.07c-9.68-1.07-19.49-2.51-28.78-5.31-11.4-3.44-22.09-4-33.65-.33C1407.22,961.07,1400.16,959.51,1392.38,959.51Z" transform="translate(0.01 0)"/><path class="cls-1" d="M1417.1,638.23c5.32,13,3.51,17-9,21.8-5.58,2.15-7.77,6.64-6.74,12.41.53,2.91,1.84,5.67,2.9,8.81-3.38,3.61-6.09,3.81-8.13-1.36-.49-1.26-1.17-2.45-1.78-3.67-10.26-20.23-8.22-25.64,13-34.31C1410.6,640.6,1413.88,639.45,1417.1,638.23Z" transform="translate(0.01 0)"/><path class="cls-1" d="M1275.16,937.75l34.67,23.89c-5.48,5.71-18.67,1.66-29.82-8.35C1271.49,945.66,1270.61,943.14,1275.16,937.75Z" transform="translate(0.01 0)"/></g><g id="Capa_3" data-name="Capa 3"><path class="cls-1" d="M998.83,582.22c-5.3-5-10.22-7.85-12.47-12.1C972.58,544,959.44,517.61,946,491.33c-16.77-32.85-33.72-65.62-50.38-98.52-14.68-29-28.9-58.26-43.65-87.23-16.23-31.89-32.87-63.58-49.27-95.4-6.23-12.09-3.47-19.16,8.55-26.11,52.08-30.15,97.88-68,135.77-114.76,16.3-20.11,30.41-42,45.21-63.32,5.46-7.85,8.2-8.2,13.33.22,24.61,40.37,53.82,77,88.43,109.28a506.72,506.72,0,0,0,93.42,69c11.15,6.39,13.89,13.92,8.13,25.21-26.58,52.09-53.38,104.05-80,156.13-22,43.09-43.76,86.29-65.65,129.42-12.62,24.85-25,49.8-38.14,74.4C1009.44,574.11,1004.28,577.08,998.83,582.22Z" transform="translate(0.01 0)"/></g><g id="Capa_2" data-name="Capa 2"><path class="cls-1" d="M0,1200.2c0-117.61,14.4-215,43.68-310.29A989.33,989.33,0,0,1,234.12,540.22,1007.48,1007.48,0,0,1,490.44,321.33a1024,1024,0,0,1,183.45-86.89c19-6.81,38.36-12.73,57.64-18.78,11.2-3.51,19.58-.2,22.54,8.3,3.5,10-.67,17.81-12.4,21.82A897.62,897.62,0,0,0,409.24,447.39a915.68,915.68,0,0,0-192.87,264c-35.21,72.09-61,147.53-75.65,226.35-7.4,39.91-11.34,80.54-15.39,121-6.4,64-2.16,127.81,6.62,191.28a915.55,915.55,0,0,0,100.59,309.39q108.66,202.74,299.47,331a885,885,0,0,0,404.91,144.85c10.71,1,16.34,7,16.37,17.75q.19,58.26,0,116.5c0,12-6.88,18.06-18.85,17.09A1023.12,1023.12,0,0,1,210.06,1795,996.42,996.42,0,0,1,84.87,1585.91a982.42,982.42,0,0,1-68.15-220.32C5.54,1304.91-.18,1243.84,0,1200.2Z" transform="translate(0.01 0)"/><path class="cls-1" d="M2022.78,1177.23c-.37,121-19.85,238.38-61.35,352.07a998.14,998.14,0,0,1-144.72,264.31,1020.68,1020.68,0,0,1-626.81,385.06c-30.32,5.54-61.05,8.84-91.65,12.8-12.28,1.59-19.33-4.92-19.49-17.18q-.73-57.43-1.27-114.86c-.13-12.2,5.24-18,17.37-19.25a858.7,858.7,0,0,0,182.2-39.82,886.73,886.73,0,0,0,271.72-147.45A923.17,923.17,0,0,0,1842.2,1444.7a937.54,937.54,0,0,0,47.1-192.28,951.63,951.63,0,0,0,7.33-173.37,915,915,0,0,0-34.94-211.35,933.74,933.74,0,0,0-78.14-189.89,915,915,0,0,0-182.13-233.74,893.81,893.81,0,0,0-264-170.09c-22.4-9.4-45.57-16.94-68.38-25.37-11.28-4.17-15.8-11.8-12.6-21.16,3-8.69,11.32-12.3,22.38-9.15,72.5,20.7,142.21,48.33,208.68,84.07a1019.16,1019.16,0,0,1,413.21,410,991.85,991.85,0,0,1,88.54,223.54c12.62,48.14,22.13,96.94,26.28,146.62C2018.16,1114.05,2020.37,1145.65,2022.78,1177.23Z" transform="translate(0.01 0)"/></g></svg>